<?xml version="1.0" standalone="no"?>
<!DOCTYPE svg PUBLIC "-//W3C//DTD SVG 20010904//EN"
 "http://www.w3.org/TR/2001/REC-SVG-20010904/DTD/svg10.dtd">
<svg version="1.0" xmlns="http://www.w3.org/2000/svg"
 width="1346.000000pt" height="1346.000000pt" viewBox="0 0 1346.000000 1346.000000"
 preserveAspectRatio="xMidYMid meet">
<metadata>
Created by potrace 1.14, written by Peter Selinger 2001-2017
</metadata>
<g transform="translate(0.000000,1346.000000) scale(0.100000,-0.100000)"
fill="#000000" stroke="none">
<path d="M1570 9993 c-144 -58 -255 -143 -302 -230 -15 -27 -47 -118 -73 -203
-25 -85 -66 -195 -90 -245 -24 -49 -42 -91 -42 -92 6 -6 174 114 224 161 93
86 126 138 204 318 38 89 88 196 110 237 22 40 38 75 37 77 -2 1 -32 -9 -68
-23z"/>
<path d="M11820 10015 c0 -2 18 -36 40 -77 21 -40 71 -147 109 -236 78 -180
111 -232 204 -318 50 -47 218 -167 224 -161 0 1 -18 43 -42 92 -24 50 -65 160
-90 245 -26 85 -56 172 -67 193 -51 101 -175 192 -340 252 -21 8 -38 12 -38
10z"/>
<path d="M2034 9981 c-119 -19 -211 -68 -275 -146 -33 -41 -235 -443 -226
-451 2 -3 34 6 71 19 141 52 235 130 284 237 58 125 139 217 265 300 43 28 55
40 41 40 -12 0 -41 2 -65 4 -24 3 -67 1 -95 -3z"/>
<path d="M11292 9983 l-44 -4 74 -50 c40 -28 88 -65 106 -82 48 -45 114 -142
145 -210 38 -83 115 -156 218 -205 83 -40 139 -58 139 -46 0 3 -45 97 -99 209
-105 216 -152 281 -236 330 -73 43 -199 67 -303 58z"/>
<path d="M2411 9914 c-93 -33 -191 -114 -286 -238 -56 -74 -155 -232 -155
-249 0 -6 24 -8 59 -4 80 7 146 45 222 126 34 36 79 85 101 108 50 54 148 102
237 116 40 6 71 16 71 23 0 20 -60 94 -93 114 -38 24 -95 25 -156 4z"/>
<path d="M10893 9911 c-33 -21 -93 -95 -93 -115 0 -7 31 -17 71 -23 89 -14
187 -62 237 -116 22 -23 67 -72 101 -108 76 -81 142 -119 222 -126 35 -4 59
-2 59 4 0 5 -23 48 -51 94 -150 250 -312 394 -458 406 -44 3 -63 0 -88 -16z"/>
<path d="M1042 9881 c-124 -42 -210 -94 -242 -146 -18 -30 -20 -50 -20 -246
-1 -126 -6 -244 -13 -286 -16 -88 -11 -87 85 15 82 87 117 158 130 260 22 181
51 255 148 377 29 36 46 65 38 65 -7 0 -64 -18 -126 -39z"/>
<path d="M12330 9855 c97 -122 126 -196 148 -377 13 -102 48 -173 130 -260 96
-102 101 -103 85 -15 -7 42 -12 160 -13 286 0 194 -2 217 -20 245 -38 62 -148
123 -300 167 -36 11 -69 19 -73 19 -5 0 14 -29 43 -65z"/>
<path d="M2606 9686 c-106 -39 -220 -112 -295 -191 -138 -147 -179 -294 -131
-480 70 -275 305 -530 631 -684 326 -155 657 -187 1052 -104 42 9 77 19 77 23
0 4 -75 19 -167 34 -782 128 -1063 250 -1192 518 -175 365 -110 638 153 638
108 0 159 -39 172 -131 13 -91 -61 -294 -161 -441 -19 -29 -33 -54 -31 -56 8
-7 131 57 211 109 200 130 291 282 256 426 -36 143 -131 267 -249 325 -57 28
-77 33 -161 36 -82 2 -106 -1 -165 -22z"/>
<path d="M10579 9696 c-151 -58 -258 -183 -300 -349 -43 -173 95 -353 379
-497 46 -23 85 -40 88 -38 2 2 -12 27 -31 56 -100 147 -174 350 -161 441 13
92 64 131 172 131 167 0 250 -100 247 -295 -2 -98 -20 -170 -73 -298 -123
-295 -388 -424 -1127 -548 -139 -23 -253 -46 -253 -49 0 -8 70 -24 198 -45
469 -79 956 57 1276 356 232 217 346 492 291 704 -33 124 -130 249 -262 335
-118 78 -191 103 -308 107 -67 2 -112 -2 -136 -11z"/>
<path d="M542 9530 c-116 -84 -211 -280 -199 -412 4 -48 15 -75 61 -151 66
-110 82 -151 99 -241 l13 -69 29 38 c79 104 95 229 51 403 -47 186 -53 332
-17 426 7 16 10 30 8 32 -2 2 -22 -9 -45 -26z"/>
<path d="M12870 9556 c0 -3 4 -16 10 -31 37 -97 32 -240 -16 -427 -44 -174
-28 -299 51 -403 l29 -38 13 69 c17 91 33 131 101 244 l57 95 -1 80 c0 58 -7
96 -24 140 -31 80 -92 175 -139 218 -38 34 -81 62 -81 53z"/>
<path d="M5145 8994 c-11 -2 -51 -12 -90 -20 -221 -50 -394 -184 -489 -377
-56 -115 -83 -218 -98 -374 -22 -246 24 -399 162 -526 129 -120 330 -197 513
-197 105 0 142 -52 142 -200 0 -52 -8 -145 -19 -207 -10 -61 -16 -123 -12
-137 10 -40 58 -59 132 -53 34 2 67 8 73 11 14 9 14 84 0 126 -9 25 -9 60 1
149 18 157 17 284 -4 354 -23 80 -65 119 -157 147 -207 63 -299 160 -299 318
0 41 4 72 10 72 6 0 10 -4 10 -8 0 -5 25 -36 56 -70 41 -45 75 -71 131 -99 67
-33 84 -37 152 -38 71 0 191 28 191 44 0 4 -30 19 -67 35 -177 76 -325 190
-374 291 -18 38 -24 66 -24 120 0 86 20 131 90 200 92 92 188 120 305 91 135
-34 306 -137 480 -290 47 -42 86 -71 88 -66 2 5 -15 53 -38 107 -122 292 -312
500 -526 573 -56 19 -93 24 -194 26 -69 1 -134 1 -145 -2z"/>
<path d="M8015 8981 c-89 -27 -110 -37 -184 -85 -110 -71 -212 -184 -299 -331
-44 -75 -125 -261 -120 -275 2 -5 50 32 108 82 231 198 437 301 573 285 104
-13 208 -90 258 -192 27 -55 31 -73 27 -122 -8 -114 -76 -208 -219 -302 -49
-32 -125 -73 -169 -92 -44 -18 -80 -36 -80 -39 0 -17 119 -45 191 -45 68 1 85
5 152 38 56 28 90 54 131 99 31 34 56 65 56 70 0 4 5 8 10 8 6 0 10 -31 10
-72 0 -158 -92 -255 -299 -318 -92 -28 -134 -67 -157 -147 -21 -70 -22 -197
-4 -354 10 -89 10 -124 1 -149 -14 -42 -14 -117 0 -126 6 -3 39 -9 73 -11 74
-6 122 13 132 53 4 14 -2 76 -12 137 -11 62 -19 155 -19 207 0 148 37 200 142
200 183 0 384 77 513 197 138 128 185 281 161 526 -14 158 -41 260 -97 374
-93 189 -250 313 -473 374 -111 30 -324 36 -406 10z"/>
<path d="M130 8913 c-112 -156 -151 -342 -96 -458 27 -57 61 -90 161 -161 135
-94 175 -141 200 -234 l12 -45 14 30 c8 18 13 70 14 130 0 122 -19 170 -118
292 -68 85 -118 176 -137 255 -13 49 -9 199 4 231 17 38 -15 14 -54 -40z"/>
<path d="M13281 8938 c5 -18 9 -67 9 -109 0 -130 -52 -250 -166 -385 -24 -28
-56 -77 -71 -110 -25 -52 -28 -70 -28 -159 1 -60 6 -112 14 -130 l14 -30 12
45 c25 95 65 140 212 244 146 102 179 161 171 299 -7 102 -47 209 -112 301
-52 73 -70 83 -55 34z"/>
<path d="M0 8153 c0 -207 52 -378 137 -452 47 -42 74 -50 230 -75 115 -18 207
-51 294 -108 34 -21 63 -37 66 -34 12 11 -84 171 -139 231 -52 56 -76 73 -176
122 -145 71 -233 151 -330 298 -36 55 -69 104 -74 110 -4 5 -8 -36 -8 -92z"/>
<path d="M13385 8144 c-101 -154 -189 -234 -337 -307 -100 -49 -124 -66 -176
-122 -55 -60 -151 -220 -139 -231 3 -3 32 13 66 34 88 57 180 91 295 108 55 9
120 20 144 26 88 22 163 121 198 260 14 58 33 338 22 338 -2 0 -35 -48 -73
-106z"/>
<path d="M4319 7781 c-146 -57 -235 -180 -246 -340 -4 -56 -1 -93 12 -136 20
-72 68 -125 113 -125 43 0 94 39 120 92 23 45 23 47 8 122 -23 108 -2 225 69
389 10 22 -15 22 -76 -2z"/>
<path d="M9065 7784 c5 -10 24 -63 43 -118 38 -111 46 -216 23 -298 -13 -44
-12 -51 10 -95 46 -93 126 -118 184 -60 77 77 86 249 21 383 -51 102 -149 180
-255 200 -31 7 -34 5 -26 -12z"/>
<path d="M4022 7770 c-157 -56 -249 -179 -259 -344 -10 -149 42 -256 124 -256
59 0 114 45 132 109 7 24 6 52 -6 102 -23 102 -3 209 72 392 9 21 3 21 -63 -3z"/>
<path d="M9375 7773 c74 -182 94 -291 72 -391 -12 -51 -13 -79 -6 -103 18 -64
73 -109 132 -109 82 0 134 107 124 256 -6 101 -36 172 -103 244 -46 49 -132
99 -198 114 -25 6 -28 5 -21 -11z"/>
<path d="M3668 7716 c-71 -29 -130 -75 -170 -134 -90 -131 -91 -354 -1 -432
39 -35 75 -38 120 -10 68 41 86 97 65 201 -22 107 -4 200 75 387 8 19 -25 14
-89 -12z"/>
<path d="M9703 7728 c42 -95 62 -157 75 -230 14 -79 14 -94 0 -160 -21 -100
-3 -157 65 -198 45 -28 81 -25 120 10 92 81 88 312 -8 443 -43 58 -100 100
-171 127 -63 23 -89 26 -81 8z"/>
<path d="M3336 7645 c-157 -64 -249 -224 -233 -403 12 -120 76 -203 147 -187
42 9 83 46 105 94 16 37 17 47 5 95 -25 106 -2 250 65 409 10 24 -17 22 -89
-8z"/>
<path d="M10034 7654 c73 -176 92 -299 66 -410 -12 -48 -11 -58 5 -95 35 -77
107 -114 163 -85 100 52 120 267 40 418 -48 91 -147 164 -248 184 -30 7 -33 5
-26 -12z"/>
<path d="M192 7412 c11 -159 172 -325 329 -339 68 -7 165 13 339 70 93 30 142
41 192 41 l67 1 -32 33 c-42 44 -143 109 -209 134 -43 17 -89 22 -245 29 -211
9 -313 26 -386 64 -27 14 -51 25 -54 25 -3 0 -4 -26 -1 -58z"/>
<path d="M13217 7445 c-61 -36 -180 -56 -385 -65 -149 -6 -199 -12 -245 -29
-64 -23 -177 -94 -219 -138 l-27 -28 67 -1 c49 -1 101 -12 195 -42 179 -57
268 -76 337 -69 158 14 317 178 328 339 3 32 0 58 -4 57 -5 0 -26 -11 -47 -24z"/>
<path d="M1510 7146 c-25 -7 -142 -49 -260 -94 -313 -118 -383 -135 -555 -136
-125 -1 -145 1 -189 22 -27 12 -51 22 -53 22 -3 0 -1 -15 2 -32 21 -98 144
-235 261 -290 54 -25 85 -33 149 -36 128 -7 244 39 460 181 99 65 179 107 239
127 57 18 164 14 230 -9 l57 -20 -7 22 c-12 42 -59 119 -97 163 -67 76 -151
105 -237 80z"/>
<path d="M11845 7151 c-94 -24 -193 -131 -229 -248 l-7 -22 56 20 c36 12 83
20 128 20 107 0 161 -22 361 -151 216 -138 309 -174 440 -169 71 4 92 9 158
42 121 59 232 184 253 286 7 31 5 33 -11 26 -97 -42 -129 -47 -249 -42 -154 6
-250 32 -555 146 -242 91 -293 105 -345 92z"/>
<path d="M2344 7076 c-124 -46 -236 -131 -416 -314 -91 -92 -152 -146 -182
-161 -65 -30 -171 -43 -253 -31 -92 13 -93 13 -93 -12 0 -64 121 -208 223
-264 44 -25 63 -29 123 -29 127 1 241 72 488 303 76 71 166 146 200 166 82 49
203 86 304 93 45 3 82 9 82 12 0 3 -13 29 -29 56 -36 63 -137 160 -193 185
-61 28 -174 26 -254 -4z"/>
<path d="M10862 7081 c-57 -27 -157 -123 -193 -186 -16 -27 -29 -53 -29 -57 0
-5 22 -8 49 -8 61 0 169 -22 243 -50 86 -32 162 -87 303 -219 159 -149 237
-210 334 -258 64 -32 83 -37 145 -37 83 -1 116 13 199 82 71 58 134 142 143
188 3 19 4 37 2 39 -3 3 -41 0 -86 -5 -97 -13 -193 0 -259 33 -26 14 -112 90
-206 183 -237 234 -355 305 -517 311 -69 3 -93 0 -128 -16z"/>
<path d="M3880 7019 c-361 -33 -701 -124 -995 -269 -214 -105 -395 -229 -513
-353 l-33 -34 60 -81 c77 -102 232 -249 350 -332 258 -183 538 -298 876 -362
103 -19 154 -22 355 -23 245 0 350 11 540 55 113 27 320 91 320 100 0 4 -48
15 -107 24 -357 57 -623 128 -812 217 -96 45 -255 145 -325 203 l-30 25 19 62
c90 295 443 449 1068 466 119 3 217 10 217 14 0 5 -26 35 -58 67 -102 102
-229 165 -407 203 -108 23 -369 32 -525 18z"/>
<path d="M9156 7019 c-156 -20 -299 -68 -403 -135 -57 -37 -163 -137 -163
-154 0 -6 60 -10 148 -10 644 0 1045 -165 1137 -469 l19 -62 -30 -25 c-61 -51
-212 -148 -296 -190 -182 -91 -454 -167 -810 -225 -76 -12 -138 -25 -138 -29
0 -9 208 -73 320 -100 190 -44 295 -55 540 -54 259 0 370 14 582 74 404 113
784 358 1000 644 l59 79 -33 34 c-222 232 -635 447 -1048 546 -297 72 -668
103 -884 76z"/>
<path d="M5015 6809 c19 -62 48 -113 91 -159 26 -28 45 -52 43 -55 -3 -2 -182
-74 -399 -160 -217 -86 -398 -160 -403 -164 -6 -6 417 -193 762 -338 l43 -19
-46 -37 c-47 -39 -90 -103 -105 -155 -9 -29 -8 -30 36 -36 264 -36 499 64 662
282 28 37 51 70 51 73 0 3 -69 5 -152 5 -171 0 -257 16 -340 61 -74 40 -93 73
-93 160 0 57 4 77 21 99 59 79 137 99 387 98 103 -1 187 1 187 4 0 20 -73 112
-131 166 -132 123 -291 184 -498 193 l-123 6 7 -24z"/>
<path d="M8185 6813 c-142 -30 -266 -95 -366 -190 -50 -47 -119 -138 -119
-155 0 -3 84 -5 188 -4 249 1 327 -19 386 -98 17 -22 21 -42 21 -99 0 -87 -19
-120 -93 -160 -82 -45 -169 -61 -339 -61 -84 0 -153 -3 -153 -6 0 -3 23 -35
51 -72 152 -203 347 -297 591 -286 60 3 111 8 115 11 14 14 -52 125 -101 172
l-54 50 405 174 c222 96 400 178 396 182 -4 4 -186 78 -403 164 -217 86 -396
158 -398 160 -2 2 15 22 37 45 37 39 80 114 96 168 6 22 5 22 -92 21 -54 0
-129 -7 -168 -16z"/>
<path d="M5335 5518 c-31 -24 -31 -38 0 -238 19 -116 15 -221 -8 -267 -30 -57
-50 -66 -160 -74 -128 -9 -210 -30 -312 -79 -157 -76 -262 -190 -307 -333 -19
-61 -23 -94 -22 -207 1 -268 61 -460 193 -617 64 -77 180 -160 267 -193 134
-50 203 -63 344 -64 122 0 142 2 208 26 108 39 176 83 268 173 87 86 159 186
219 305 40 79 85 192 85 212 0 7 -21 -8 -47 -33 -110 -106 -267 -220 -378
-276 -137 -70 -262 -83 -353 -37 -113 56 -192 168 -192 274 0 98 71 207 189
294 51 38 212 121 254 131 39 10 34 21 -20 42 -34 13 -75 18 -138 18 -76 0
-98 -4 -145 -26 -69 -33 -120 -74 -173 -139 l-42 -52 -7 42 c-8 48 4 126 27
171 39 75 169 162 275 184 82 17 131 65 156 153 14 47 16 82 9 217 -10 210
-10 258 0 329 10 75 -2 86 -96 86 -53 0 -72 -4 -94 -22z"/>
<path d="M7948 5529 c-21 -12 -23 -59 -7 -125 9 -35 9 -71 -1 -151 -17 -143
-15 -281 5 -348 24 -84 61 -119 158 -150 227 -73 308 -171 298 -360 l-2 -40
-20 25 c-58 72 -130 134 -189 163 -58 29 -73 32 -155 32 -63 0 -104 -5 -137
-18 -46 -18 -63 -37 -34 -37 8 0 68 -27 134 -60 321 -160 413 -393 228 -574
-125 -121 -268 -128 -466 -25 -97 51 -228 145 -329 237 -45 40 -81 69 -81 63
0 -22 51 -145 96 -233 119 -230 282 -386 476 -456 65 -23 87 -26 203 -26 100
0 150 5 217 22 372 92 567 355 594 798 14 237 -51 400 -209 520 -122 93 -261
142 -434 153 -110 8 -130 17 -160 74 -23 46 -27 151 -8 267 31 200 31 214 0
238 -22 18 -41 22 -94 22 -36 0 -74 -5 -83 -11z"/>
<path d="M3175 5497 c-78 -78 -86 -258 -17 -393 42 -83 153 -165 256 -190 26
-6 28 -5 22 12 -74 179 -93 284 -71 389 19 89 9 130 -45 179 -54 49 -98 50
-145 3z"/>
<path d="M10140 5494 c-47 -43 -66 -98 -51 -147 33 -111 16 -224 -65 -421 -6
-17 -4 -18 22 -12 60 15 154 66 194 106 124 124 148 374 45 477 -47 47 -91 46
-145 -3z"/>
<path d="M3507 5440 c-39 -31 -67 -117 -67 -204 0 -172 81 -301 230 -364 66
-28 104 -36 97 -20 -45 108 -59 149 -73 222 -15 76 -16 97 -4 170 16 102 10
129 -39 178 -32 31 -46 38 -78 38 -25 0 -50 -8 -66 -20z"/>
<path d="M9809 5422 c-49 -49 -55 -76 -39 -178 12 -74 11 -94 -4 -171 -9 -48
-30 -119 -46 -157 -16 -38 -28 -71 -27 -73 6 -6 84 20 130 43 68 35 124 95
160 172 43 91 50 218 17 304 -26 70 -58 98 -113 98 -32 0 -46 -7 -78 -38z"/>
<path d="M3860 5407 c-62 -31 -95 -123 -88 -248 7 -107 45 -195 114 -258 46
-44 126 -86 181 -97 l31 -6 -34 90 c-47 125 -60 218 -43 307 7 38 11 81 10 95
-4 40 -49 100 -86 116 -42 17 -53 17 -85 1z"/>
<path d="M9511 5403 c-71 -37 -95 -102 -73 -198 22 -95 0 -226 -62 -369 l-17
-39 33 7 c111 21 227 118 270 224 32 81 33 248 2 307 -42 77 -92 100 -153 68z"/>
<path d="M4139 5369 c-67 -72 -78 -247 -24 -367 45 -100 157 -191 269 -216 25
-6 28 -5 21 11 -75 184 -95 289 -72 392 20 88 11 126 -43 175 -54 49 -108 51
-151 5z"/>
<path d="M9170 5364 c-54 -49 -63 -87 -43 -176 22 -100 2 -209 -72 -391 -7
-16 -4 -17 21 -11 109 25 215 109 265 210 25 50 32 80 36 146 13 210 -94 324
-207 222z"/>
</g>
</svg>
