<?xml version="1.0" encoding="utf-8"?>
<!-- Generator: Adobe Illustrator 26.0.1, SVG Export Plug-In . SVG Version: 6.00 Build 0)  -->
<svg version="1.1" id="Layer_2" xmlns="http://www.w3.org/2000/svg" xmlns:xlink="http://www.w3.org/1999/xlink" x="0px" y="0px"
	 viewBox="0 0 1838.8 1839.2" style="enable-background:new 0 0 1838.8 1839.2;" xml:space="preserve">
<style type="text/css">
	.st0{fill:#BBD5E9;}
</style>
<path class="st0" d="M1595.4,1544.3l-12.3-89l89.6-6.6l-24.1-86.6l87.9-18.5l-35.4-82.6l84.7-30l-46.1-77.1l79.9-41l-55.9-70.3
	l73.7-51.3l-64.8-62.2l66.2-60.7l-72.5-53l57.5-69l-78.9-42.9l47.8-76l-84-32l37.3-81.7l-87.5-20.5l26-86l-89.4-8.7l14.4-88.7
	l-89.8,3.3l2.4-89.8l-88.5,15.3l-9.6-89.3l-85.7,26.9L1317,89.1l-81.3,38.1l-32.8-83.6l-75.5,48.6l-43.7-78.5L1015.2,72L961.4,0
	l-60,66.9L838.5,2.7L788,77l-70.9-55.2l-40.2,80.3l-77.6-45.3l-29.1,85l-82.9-34.5l-17.6,88.1l-86.8-23.2l-5.7,89.7l-89.1-11.4
	l6.3,89.6l-89.8,0.6l18.2,88l-89,12.6l29.8,84.8l-86.5,24.3l40.8,80l-82.5,35.6l51.1,73.9l-77,46.3l60.5,66.4L0,908.6l68.8,57.7
	l-62,65l75.9,48.1l-52.8,72.7l81.6,37.5l-42.7,79.1l85.9,26.3l-31.7,84l88.6,14.6l-20.2,87.5l89.8,2.7l-8.4,89.4l89.4-9.3l3.6,89.8
	l87.3-21.2l15.5,88.5l83.7-32.6l27.2,85.6l78.6-43.5l38.4,81.2l72.1-53.6l48.8,75.4l64.3-62.7l58.5,68.2l55.4-70.7l67,59.8
	l45.5-77.5l74.4,50.4l34.8-82.8l80.4,40l23.4-86.7l85.1,28.9l11.6-89.1l88.2,17.3l-0.3-89.8 M919.4,1752.2
	c-459.2,0-832.8-373.6-832.8-832.8c0-459.2,373.6-832.8,832.8-832.8s832.8,373.6,832.8,832.8
	C1752.1,1378.7,1378.6,1752.2,919.4,1752.2z M919.4,119.4c-441.8,0-800,358.2-800,800s358.2,800,800,800c441.8,0,800-358.2,800-800
	S1361.2,119.4,919.4,119.4z M919.4,1643.4c-399.8,0-723.9-324.1-723.9-723.9c0-399.8,324.1-723.9,723.9-723.9
	c399.8,0,723.9,324.1,723.9,723.9C1643.3,1319.3,1319.2,1643.4,919.4,1643.4z M886.1,874.1c0,27.5-6.7,48.7-20.2,63.4
	c-13.4,14.7-33.3,22.1-59.5,22.1s-46.1-7.4-59.5-22.1c-13.4-14.7-20.2-35.9-20.2-63.4v-28.2h50.5v31.6c0,12.3,2.5,21,7.5,26
	c5,5,11.7,7.5,20.2,7.5c8.4,0,15.1-2.6,20.2-7.8c5-5.2,7.5-15.4,7.5-30.6v-26.7c0-15.9-2.8-27.1-8.3-33.5
	c-5.5-6.5-14.4-9.7-26.7-9.7h-18v-48.6h20.9c10,0,17.9-2.6,23.6-7.8c5.7-5.2,8.5-14.6,8.5-28.2v-19c0-15.2-2.5-25.5-7.5-30.9
	c-5-5.4-11.7-8-20.2-8c-8.4,0-15.1,2.5-20.2,7.5c-5,5-7.5,13.7-7.5,26v21.9h-50.5v-18.5c0-27.5,6.7-48.7,20.2-63.4
	c13.4-14.7,33.3-22.1,59.5-22.1s46.1,7.4,59.5,22.1c13.4,14.7,20.2,35.9,20.2,63.4v8.7c0,36.3-12.5,59.6-37.4,70
	c13.6,5.8,23.2,14.8,28.9,27c5.7,12.2,8.5,27,8.5,44.5V874.1z M1015.9,959.6c26.2,0,46.3-7.4,60.3-22.1
	c13.9-14.7,20.9-35.9,20.9-63.4V697.2c0-27.5-7-48.7-20.9-63.4c-13.9-14.7-34-22.1-60.3-22.1c-26.2,0-46.3,7.4-60.3,22.1
	c-13.9,14.7-20.9,35.9-20.9,63.4v176.9c0,27.5,7,48.7,20.9,63.4C969.5,952.3,989.6,959.6,1015.9,959.6z M988.2,693.8
	c0-12.3,2.5-21,7.5-26c5-5,11.7-7.5,20.2-7.5c8.4,0,15.1,2.5,20.2,7.5c5,5,7.5,13.7,7.5,26v183.7c0,12.3-2.5,21-7.5,26
	c-5,5-11.7,7.5-20.2,7.5c-8.4,0-15.1-2.5-20.2-7.5c-5-5-7.5-13.7-7.5-26V693.8z M359.9,542.6l103.3,46.7L387.2,505l17-23.4
	l129.5,90.6l-12.8,17.6l-89.3-62.4l74.8,82.4l-9.9,13.7l-102-45.5l87.4,65.5L469,661.4l-126.4-94.9L359.9,542.6z M486.3,467.2
	l37.2,44.9c10.9,13.1,21.8,20.8,32.9,23.1c11.1,2.3,22.9-1.7,35.4-12.1c6.4-5.3,11.1-10.7,14.1-16.3c3.1-5.6,4.5-11.3,4.3-17.1
	c-0.2-5.8-1.7-11.6-4.4-17.5c-2.7-5.9-6.7-12-12-18.3l-37.2-44.9c-10.7-13-21.6-20.6-32.6-22.7c-11-2.2-22.8,1.9-35.2,12.2
	c-6.4,5.3-11.2,10.7-14.3,16.2c-3.1,5.5-4.6,11.1-4.4,16.9c0.2,5.7,1.6,11.5,4.3,17.2C476.9,454.6,480.9,460.7,486.3,467.2z
	 M496.7,421.7c1-2.3,2.9-4.5,5.5-6.7c2.6-2.2,5.2-3.6,7.6-4.1c2.4-0.6,4.8-0.3,7.1,0.7c2.3,1,4.4,2.4,6.3,4.1c1.9,1.7,4.1,4,6.5,7
	l45.8,55.3c1.9,2.3,3.5,4.4,4.7,6.2c1.2,1.8,2.2,3.8,3.1,5.8c0.9,2.1,1.3,4,1.2,5.8c-0.1,1.8-0.6,3.6-1.6,5.5
	c-1,1.9-2.6,3.7-4.7,5.5c-2.2,1.8-4.3,3-6.3,3.6c-2.1,0.6-4,0.8-5.7,0.5c-1.7-0.3-3.5-1.1-5.4-2.3c-1.9-1.2-3.6-2.6-5.2-4.1
	c-1.5-1.5-3.3-3.4-5.2-5.7l-45.8-55.3c-2.4-2.9-4.3-5.5-5.6-7.7c-1.3-2.2-2.3-4.5-2.9-6.9C495.4,426.3,495.6,424,496.7,421.7z
	 M710,447.1l-76.9-66.9l41.9,84.3l-21.9,10.9l-70.3-141.6l17.8-8.8l74.5,62.9l-39.8-80.2l21.3-10.6l70.3,141.5L710,447.1z
	 M761.5,427.1L722.1,274l64.1-16.5l5.1,19.7l-36.2,9.3l11.3,43.9l28.6-7.4l5.1,19.7l-28.6,7.4l13,50.5l36.7-9.4l5,19.3L761.5,427.1z
	 M929.4,243.9l-26.9,99.5l3.1,60.1l-27.4,1.4l-3.1-60.1l-37.3-96.1l26.9-1.4l22.8,61.8l15.4-63.8L929.4,243.9z M1142.7,291.5
	c-3.2-4.1-7.2-7.6-12-10.4c-4.8-2.8-10.7-5.3-17.7-7.4l-37-11.3l-46.2,151.2l43.4,13.3c13.9,4.2,25.5,3.7,35-1.5
	c9.5-5.2,16.4-15,20.7-29.4c3.3-11.1,3.7-20.3,1.2-27.8c-2.5-7.5-8-13.4-16.4-17.8c15.4,2.3,26-5.8,31.8-24.5
	c2.3-7.2,3.2-13.7,2.6-19.4C1147.7,300.5,1145.9,295.6,1142.7,291.5z M1102.8,387.5c-2.7,8.8-6.2,14.7-10.5,17.5
	c-4.3,2.9-10.6,3-18.8,0.5l-10.1-3.1l15.5-50.7l8.7,2.6c8.4,2.6,13.7,6.4,16,11.6C1105.8,371.2,1105.6,378.4,1102.8,387.5z
	 M1121.5,318.7c-2.5,8.2-5.8,13.6-9.9,16.1c-4.1,2.5-10.2,2.6-18.3,0.1l-8.6-2.6l12.9-42.3l3.8,1.2c4.8,1.5,8.6,2.9,11.3,4.2
	c2.8,1.3,5.1,3,7.1,5.1c2,2.1,3,4.6,3.2,7.5C1123.3,310.9,1122.8,314.5,1121.5,318.7z M1135.8,448.5l23.5,13.6l24-28.6l23.7,13.7
	l-12.8,35l23.2,13.4l51.2-152.9l-26-15L1135.8,448.5z M1213.7,429.3l-18.3-10.6l41.6-51L1213.7,429.3z M1391.6,439.7
	c2.7,5.3,3.8,10.6,3.5,15.8c-0.4,5.2-1.9,10.3-4.5,15.3c-2.6,5-6.4,10.1-11.3,15.5l-9.2,9.9l-20.4-18.8l9.1-9.9
	c5.3-5.8,8.6-10,9.9-12.5c2.4-5,1.4-9.9-3.1-14.5c-0.4-0.3-0.7-0.7-1.1-1c-1.8-1.6-3.5-2.9-5.2-3.7c-1.7-0.8-3.4-1.1-5.1-1
	c-1.7,0.1-3.3,0.5-4.7,1c-1.5,0.6-3.1,1.5-4.9,3c-1.8,1.4-3.4,2.8-4.7,4.1c-1.4,1.3-3,3.1-5,5.2l-45.4,49.2
	c-6.3,6.8-9.9,12.5-10.9,16.9c-1,4.5,0.7,8.7,5.1,12.8c1.5,1.4,3,2.4,4.4,3.1c1.5,0.7,2.8,1.1,4.1,1.3c1.3,0.2,2.6,0,4.1-0.5
	c1.5-0.5,2.7-1.1,3.8-1.7c1.1-0.6,2.4-1.6,4-3c1.6-1.4,2.8-2.6,3.9-3.7c1-1.1,2.4-2.5,4.1-4.4l9.6-10.4l20.4,18.8l-8.8,9.5
	c-4,4.3-7.9,8-11.7,10.9c-3.8,2.9-7.8,5.2-12.1,6.9c-4.3,1.7-8.5,2.5-12.7,2.3c-4.2-0.1-8.6-1.3-13.3-3.5c-4.7-2.2-9.5-5.5-14.3-10
	c-5-4.6-8.8-9.3-11.5-14.1c-2.7-4.8-4.2-9.5-4.6-14c-0.4-4.5,0.1-9.2,1.6-14c1.5-4.8,3.7-9.3,6.6-13.7c2.9-4.4,6.5-9,10.9-13.7
	l37.4-40.5c4.7-5,9.1-9.2,13.4-12.5c4.3-3.3,8.7-5.9,13.3-7.8c4.6-1.9,9.2-2.8,13.7-2.6c4.5,0.2,9.2,1.4,14.1,3.7
	c4.9,2.3,9.9,5.8,15,10.4C1384.6,429.1,1388.9,434.4,1391.6,439.7z M1468.9,528.7l-56.6,38.9l74.2-13.3L1502,577l-75.4,15.2l-53,77
	l-16.3-23.6l45.8-64.6l-11.7,1.1l-52.8,36.3l-16.3-23.7l130.2-89.6L1468.9,528.7z M384.6,1321.8l12-10.9c-12.6,3-22.7-0.9-30.2-11.7
	c-8.5-12.3-10.8-23.8-6.9-34.5c3.9-10.7,13.2-21.2,27.9-31.4l42.3-29.4c7.5-5.2,14.3-9.1,20.5-11.7c6.2-2.6,12.3-3.9,18.3-4
	c6-0.1,11.7,1.6,17.1,5.1c5.4,3.4,10.6,8.7,15.5,15.7c8.9,12.8,12.2,24.2,9.8,34.2c-2.4,10-10,19.4-22.8,28.3l-6.3,4.4l-15.7-22.6
	l6.7-4.7c2.9-2,5.2-3.7,6.9-5.1c1.7-1.4,3.4-3,4.9-4.8c1.5-1.8,2.4-3.5,2.8-5.1c0.3-1.6,0.3-3.5-0.2-5.5s-1.6-4.3-3.2-6.6
	c-1.2-1.8-2.5-3.2-4-4.3c-1.4-1.1-2.8-1.9-4.1-2.3c-1.3-0.5-2.8-0.6-4.4-0.5c-1.7,0.2-3.2,0.5-4.5,0.9c-1.4,0.4-3,1.2-4.9,2.2
	c-1.9,1-3.5,2-4.9,2.9c-1.4,0.9-3.2,2.1-5.3,3.6l-52.4,36.4c-7.8,5.4-12.9,10.4-15.2,14.8c-2.3,4.4-1.5,9.4,2.2,14.8
	c2,2.8,4.1,4.8,6.5,6c2.4,1.2,5,1.5,8,1.1c2.9-0.4,5.9-1.4,9-2.9c3.1-1.5,6.6-3.6,10.6-6.4l10.6-7.4l-9.7-14l15.3-10.6l24.5,35.3
	l-65.9,45.8L384.6,1321.8z M459.5,1404.5c-2.7-4.7-4.4-9.3-4.9-13.7c-0.5-4.4,0.1-9.1,1.7-13.9c1.6-4.8,4-9.5,7-14.1
	c3-4.6,7-9.5,11.8-14.9l70.1-78.1l20.8,18.7l-72.1,80.3c-2.5,2.7-4.5,5.2-6.1,7.2c-1.6,2.1-3.1,4.4-4.6,6.9
	c-1.4,2.5-2.3,4.9-2.6,6.9c-0.3,2.1,0,4.2,0.7,6.4c0.8,2.2,2.2,4.3,4.4,6.3c2.2,2,4.4,3.2,6.7,3.7c2.3,0.5,4.4,0.5,6.4,0
	c2-0.5,4.2-1.6,6.6-3.3c2.4-1.7,4.5-3.4,6.4-5.2c1.8-1.8,4-4.1,6.5-6.9l72.1-80.3l20.8,18.7l-70.1,78.1c-4.8,5.3-9.3,9.8-13.5,13.3
	c-4.2,3.5-8.6,6.3-13.3,8.5c-4.6,2.1-9.1,3.2-13.6,3.2c-4.5,0-9.2-1.1-14.1-3.3c-5-2.2-10-5.7-15.2-10.3
	C466.3,1413.9,462.3,1409.2,459.5,1404.5z M637.3,1527.7l48.5-153.8l-26.3-14.5l-104.6,122.8l23.8,13.2l23.4-29l23.9,13.2
	l-12.2,35.2L637.3,1527.7z M613.9,1451.3l40.7-51.7l-22.2,61.9L613.9,1451.3z M780.5,1575.4l0.3-80.9c7.3-0.9,13.3-3.9,17.8-9.2
	c4.6-5.2,8.2-12.6,10.9-22.2c2.2-7.6,3-14.4,2.4-20.3c-0.6-5.9-2.6-11-5.9-15.3c-3.4-4.3-7.7-7.9-13.1-10.9
	c-5.4-3-12.1-5.6-20.1-7.9l-34.8-10l-43.4,152l27.7,7.9l19.8-69.4l12.3,3.5l-1.7,74.6L780.5,1575.4z M753.9,1473.6l-6.7-1.9
	l13.1-45.8l8.3,2.4c8,2.3,13,5.6,15,10c2,4.4,1.8,10.6-0.5,18.7c-2.4,8.4-5.8,13.9-10.3,16.4
	C768.4,1475.8,762.1,1475.9,753.9,1473.6z M872.1,1549.8l27.3,1.4l4.4,37l26.8,1.4L907,1430.1l-30-1.6l-40.4,156.2l27.1,1.4
	L872.1,1549.8z M890.2,1467l7.2,65.4l-21.1-1.1L890.2,1467z M1054.5,1574.8l-54.4-86.2l15.8,92.8l-24.1,4.1l-26.6-155.8l19.5-3.3
	l53.2,81.7l-15.1-88.3l23.5-4l26.6,155.8L1054.5,1574.8z M1077.9,1428.9l-7.8-19.8l75.2-29.9l7.8,19.8l-23.8,9.5l50.5,127.2
	l-26.8,10.6l-50.5-127.2L1077.9,1428.9z M1234.8,1348.1l-31.5,20.1l24.4,38.3l24.9-15.9l10.9,17.1l-24.9,15.9l28,44l31.9-20.3
	l10.7,16.8l-56.2,35.8l-84.9-133.3l55.8-35.5L1234.8,1348.1z M1391,1366.5l13.7,14.5l-48.5,45.7l-108.4-115.1l48.2-45.4l13.9,14.8
	l-27.2,25.6l31.1,33l21.5-20.3l13.9,14.8l-21.5,20.3l35.8,38L1391,1366.5z M1466.7,1303.7c5.2-7.5,8.8-14.5,10.7-20.8
	c1.9-6.4,2.1-12.3,0.7-17.9c-1.4-5.6-4.3-10.9-8.5-15.8c-4.2-4.9-10-10-17.5-15.1l-46.8-32.5c-7.2-5-13.7-8.5-19.6-10.6
	c-5.9-2.1-11.6-2.7-17.2-1.9c-5.6,0.8-11,3.3-16.2,7.5c-5.2,4.2-10.6,10.2-16,18l-21,30.2l129.9,90.1L1466.7,1303.7z M1348.5,1232.9
	l4.5-6.5c1.8-2.7,3.6-4.8,5.2-6.5c1.6-1.6,3.3-2.8,5.1-3.4c1.7-0.7,3.4-1,4.9-1c1.6,0,3.4,0.4,5.6,1.3c2.2,0.9,4.2,2,6.2,3.2
	c2,1.2,4.5,2.9,7.6,5l47.5,32.9c3.1,2.1,5.4,3.8,6.9,4.9c1.5,1.1,3.3,2.6,5.4,4.3c2.1,1.7,3.5,3.2,4.3,4.4c0.8,1.2,1.6,2.6,2.3,4.3
	c0.7,1.7,1,3.4,0.7,5c-0.3,1.6-0.8,3.4-1.6,5.5c-0.8,2.1-2,4.3-3.7,6.6l-4.7,6.7L1348.5,1232.9z M1569.8,907l-34.2,24.8l13.1,40.2
	l-34.2-24.8l-34.2,24.8l13.1-40.2l-34.2-24.8h42.3l13.1-40.2l13.1,40.2H1569.8z M1537,745.3l-26.2,19.6l10.6,31l-26.8-18.9
	l-26.2,19.6l9.7-31.3l-26.8-18.9l32.7-0.5l9.7-31.3l10.6,31L1537,745.3z M1529.2,1076.5l-26.2,19.6l10.6,31l-26.8-18.9l-26.2,19.6
	l9.7-31.3l-26.8-18.9l32.7-0.5l9.7-31.3l10.6,31L1529.2,1076.5z M290.1,972.1l13.1-40.2L269,907h42.3l13.1-40.2l13.1,40.2h42.3
	l-34.2,24.8l13.1,40.2l-34.2-24.8L290.1,972.1z M334.4,745.7l10.6-31l9.7,31.3l32.7,0.5l-26.8,18.9l9.7,31.3L344.1,777l-26.8,18.9
	l10.6-31l-26.2-19.6L334.4,745.7z M325.2,1127.1l10.6-31l-26.2-19.6l32.7,0.5l10.6-31l9.7,31.3l32.7,0.5l-26.8,18.9l9.7,31.3
	l-26.2-19.6L325.2,1127.1z M1389.9,919.5c0-259.5-211.1-470.5-470.5-470.5S448.8,660,448.8,919.5S659.9,1390,919.4,1390
	S1389.9,1178.9,1389.9,919.5z M471.2,919.5c0-247.1,201-448.1,448.1-448.1s448.1,201,448.1,448.1s-201,448.1-448.1,448.1
	S471.2,1166.6,471.2,919.5z M824.2,1023.8c-4.4-4.6-10.2-8-17.4-10.2c-7.2-2.1-16.2-3.2-26.9-3.2h-41.4v177.8h42.7
	c10.3,0,19-1.2,26.1-3.5c7.1-2.3,12.7-5.9,17-10.9c4.3-4.9,7.3-10.9,9.2-18c1.9-7.1,2.8-15.7,2.8-25.8v-64.1
	c0-9.9-0.9-18.2-2.7-24.9C831.7,1034.2,828.6,1028.5,824.2,1023.8z M803.3,1129.7c0,4.2,0,7.4-0.1,9.5c-0.1,2.1-0.2,4.7-0.5,7.8
	c-0.3,3-0.7,5.3-1.3,6.8c-0.6,1.5-1.4,3.1-2.5,4.9c-1.1,1.8-2.5,3.1-4.1,3.9c-1.6,0.8-3.7,1.5-6.1,2c-2.4,0.6-5.3,0.9-8.5,0.9h-9.2
	v-131.9h8.9c3.6,0,6.8,0.2,9.3,0.7c2.6,0.5,4.7,1.3,6.4,2.5c1.7,1.2,3.1,2.5,4.1,3.9c1,1.4,1.8,3.4,2.4,6.1c0.5,2.6,0.9,5.2,1,7.8
	c0.1,2.6,0.2,6,0.2,10.2V1129.7z M957.1,1188.2h30.1l-36-177.8h-33.8l-36.1,177.8h30.6l7.3-41.3h30.8L957.1,1188.2z M922.6,1125.8
	l11.9-73l11.9,73H922.6z M1094.3,1010.4h29.9l-36,110.1v67.7h-30.9v-67.7l-36.2-110.1h30.2l22,70.8L1094.3,1010.4z"/>
</svg>
