<svg id="Layer_1" data-name="Layer 1" xmlns="http://www.w3.org/2000/svg" viewBox="0 0 1346.43 658.19">
  <defs>
    <style>
      .cls-1 {
        fill: #0d4e81;
      }
    </style>
  </defs>
  <g>
    <path class="cls-1" d="M980.31,337.89c-55,1.08-70.82,30.56-70.82,30.56,78-1.26,124.21,14.74,130.68,53.57-39.36,33.44-81.43,38.29-128.89,46.38,121.34,45.84,219-12.94,251.85-64.18C1115.13,353.53,1035.32,336.81,980.31,337.89Z" transform="translate(-50.76 -38.59)"/>
    <path class="cls-1" d="M896.18,357.31c-58.78-2.7-76,37.75-76,37.75,58.78-4.86,62,7,60.4,23.72-1,10.2-18.34,21-59.33,16.72,25.89,42.07,58.79,38.29,76.58,36.13-2.15-14-16.18-22.11-16.18-22.11l82.51-35.59-83-32.9A38.6,38.6,0,0,0,896.18,357.31Z" transform="translate(-50.76 -38.59)"/>
    <path class="cls-1" d="M868.68,177.18c28,14,34.52,49.62-28,72.27,36.67,17.79,55.54-17.8,55.54-17.8s11.33,30.74-32.35,41c-24.27,7-10.25,55.54-11.87,60.94s-3.77,11.86-1.08,15.64c0,0,23.73,7,21-9.17s-10.79-50.69,10.24-49.62,66.87-12.94,68.49-55-12.94-89.52-75.5-94.92S791,214.39,791,214.39,840.64,163.16,868.68,177.18Z" transform="translate(-50.76 -38.59)"/>
    <path class="cls-1" d="M876.23,546.59c-21,1.08-12.94-33.43-10.25-49.61s-21-9.17-21-9.17c-2.69,3.78-.54,10.25,1.08,15.64s-12.4,53.93,11.86,60.94c43.69,10.25,32.36,41,32.36,41s-18.87-35.6-55.54-17.8c62.55,22.65,56.08,58.24,28,72.26s-77.66-37.21-77.66-37.21,21.57,79.28,84.13,73.89,77.12-52.85,75.5-94.92S897.26,545.52,876.23,546.59Z" transform="translate(-50.76 -38.59)"/>
    <path class="cls-1" d="M983.55,504c-9.71-10.78-24.36,4.68-20.49,15.1,6.47,17.44-7.55,43.68-7.55,43.68C994.33,555.76,993.26,514.78,983.55,504Z" transform="translate(-50.76 -38.59)"/>
    <path class="cls-1" d="M1014.65,502.55c-9.71-10.78-24.36,4.68-20.5,15.1,6.48,17.44-7.55,43.69-7.55,43.69C1025.43,554.32,1024.35,513.34,1014.65,502.55Z" transform="translate(-50.76 -38.59)"/>
    <path class="cls-1" d="M1047.72,498.06c-9.7-10.79-24.36,4.68-20.49,15.1,6.47,17.44-7.55,43.68-7.55,43.68C1058.51,549.83,1057.43,508.84,1047.72,498.06Z" transform="translate(-50.76 -38.59)"/>
    <path class="cls-1" d="M1060,506.33c6.47,17.43-7.55,43.68-7.55,43.68,38.83-7,37.75-48,28-58.78S1056.08,495.9,1060,506.33Z" transform="translate(-50.76 -38.59)"/>
    <path class="cls-1" d="M964,303.92c-3.86,10.42,10.79,25.88,20.5,15.1s10.78-51.78-28.05-58.79C956.4,260.23,970.43,286.48,964,303.92Z" transform="translate(-50.76 -38.59)"/>
    <path class="cls-1" d="M995.05,305.35c-3.86,10.43,10.79,25.89,20.5,15.1s10.78-51.77-28-58.78C987.5,261.67,1001.52,287.92,995.05,305.35Z" transform="translate(-50.76 -38.59)"/>
    <path class="cls-1" d="M1048.62,325c9.71-10.79,10.79-51.77-28-58.78,0,0,14,26.24,7.55,43.68C1024.26,320.27,1038.92,335.73,1048.62,325Z" transform="translate(-50.76 -38.59)"/>
    <path class="cls-1" d="M1081.34,331.78c9.71-10.79,10.78-51.77-28-58.78,0,0,14,26.24,7.55,43.68C1057,327.1,1071.63,342.56,1081.34,331.78Z" transform="translate(-50.76 -38.59)"/>
    <path class="cls-1" d="M1212.92,373.48c-15.1-17.25-49.61-53.92-76.93-40.26a52.06,52.06,0,0,0-21.57,24.44s28-2.15,48.17,15.82,51.05,54.65,75.5,36c21.57-15.82,19.42-27.33,19.42-27.33S1228,390.74,1212.92,373.48Z" transform="translate(-50.76 -38.59)"/>
    <path class="cls-1" d="M1246.18,326c-24.27-7-34.51,27-34.51,27a43.94,43.94,0,0,1,19.95-4.85c23.19,1.08,38.83,24.27,68,31.82s53.93-23.73,52.31-35.6C1323.3,362.16,1270.45,333,1246.18,326Z" transform="translate(-50.76 -38.59)"/>
    <path class="cls-1" d="M1323.84,302.84c-22.11,0-39.37,20-39.37,20,14-3.77,20.49,3.78,50.69,10.25s48.54-31.28,42.07-39.91C1368.6,301.76,1346,302.84,1323.84,302.84Z" transform="translate(-50.76 -38.59)"/>
    <path class="cls-1" d="M1356.73,256.46c-24.26,8.63-33.43,37.75-33.43,37.75A76.17,76.17,0,0,1,1367.52,277c36.13-1.08,29.12-62.56,29.12-62.56S1381,247.83,1356.73,256.46Z" transform="translate(-50.76 -38.59)"/>
    <path class="cls-1" d="M1356.73,239.74c2.7-15.64,4.32-17.26,28.59-34s2.69-57.17-7.55-63.1c4.85,10.79,5.39,31.82-14,53.39A38.4,38.4,0,0,0,1356.73,239.74Z" transform="translate(-50.76 -38.59)"/>
    <path class="cls-1" d="M1346.49,175c-.54-7,1.08-18.34,12.94-35.06s-7-50.69-22.11-55.54c4.31,6.47,7.55,22.65-.54,49.61S1346.49,175,1346.49,175Z" transform="translate(-50.76 -38.59)"/>
    <path class="cls-1" d="M1298.49,89.82c0,23.19,23.73,38.29,23.73,38.29-3.77-10.25-3.77-33.44-2.7-52.85s-41.52-27-41.52-27S1298.49,66.63,1298.49,89.82Z" transform="translate(-50.76 -38.59)"/>
    <path class="cls-1" d="M1293.1,119.48c-8.63-8.09-12.94-27.5-19.95-49.61s-40.45-31.28-40.45-31.28a332.7,332.7,0,0,1,19.41,41.52C1261.28,103.84,1293.1,119.48,1293.1,119.48Z" transform="translate(-50.76 -38.59)"/>
    <path class="cls-1" d="M1207.89,75.8c8.63,21.57,36.67,27,36.67,27s-4.31-10.24-18.87-38.83-50.16-21-50.16-21S1199.26,54.23,1207.89,75.8Z" transform="translate(-50.76 -38.59)"/>
    <path class="cls-1" d="M1166.37,79.57c12.4,17.8,28,21,34,18.34,0,0-25.34-51.77-53.93-50.15-10.24-.54-16.18,14.56-16.18,14.56S1154,61.78,1166.37,79.57Z" transform="translate(-50.76 -38.59)"/>
    <path class="cls-1" d="M1000.81,215.47c89.52,25.35,160.16-22.65,176.88-70.64s-31.82-71.73-48.53-75S1087.63,73.64,1079,106s48,54.47,48,54.47c-17.8-24.27-33.44-62.56-5.39-64.18s36.13,28,16.17,66.87S1042.87,207.38,1000.81,215.47Z" transform="translate(-50.76 -38.59)"/>
    <path class="cls-1" d="M536.66,468.4c-47.46-8.09-89.52-12.94-128.89-46.38,6.47-38.83,52.67-54.83,130.69-53.57,0,0-15.82-29.48-70.83-30.56s-134.82,15.64-182.82,66.33C317.71,455.46,415.32,514.24,536.66,468.4Z" transform="translate(-50.76 -38.59)"/>
    <path class="cls-1" d="M627.8,395.06s-17.26-40.45-76-37.75A38.68,38.68,0,0,0,566.86,381l-83.05,32.9,82.51,35.59s-14,8.09-16.18,22.11c17.8,2.16,50.7,5.94,76.58-36.13-41,4.32-58.33-6.52-59.32-16.72C565.78,402.07,569,390.2,627.8,395.06Z" transform="translate(-50.76 -38.59)"/>
    <path class="cls-1" d="M565.78,290.43c21-1.07,12.94,33.44,10.25,49.62s21,9.17,21,9.17c2.7-3.78.54-10.25-1.08-15.64s12.41-53.93-11.86-60.94c-43.68-10.25-32.36-41-32.36-41s18.88,35.59,55.55,17.8c-62.56-22.65-56.09-58.24-28-72.27s77.66,37.21,77.66,37.21-21.57-79.27-84.13-73.88-77.12,52.85-75.5,94.92S544.75,291.51,565.78,290.43Z" transform="translate(-50.76 -38.59)"/>
    <path class="cls-1" d="M585.2,659.84c-28.05-14-34.52-49.61,28-72.26-36.67-17.8-55.55,17.8-55.55,17.8s-11.32-30.74,32.36-41c24.27-7,10.25-55.55,11.86-60.94s3.78-11.86,1.08-15.64c0,0-23.73-7-21,9.17s10.79,50.69-10.25,49.61-66.87,12.95-68.48,55,12.94,89.52,75.5,94.92,84.12-73.89,84.12-73.89S613.24,673.87,585.2,659.84Z" transform="translate(-50.76 -38.59)"/>
    <path class="cls-1" d="M484.89,519.09c3.87-10.42-10.79-25.88-20.49-15.1s-10.79,51.77,28,58.78C492.44,562.77,478.42,536.53,484.89,519.09Z" transform="translate(-50.76 -38.59)"/>
    <path class="cls-1" d="M453.79,517.65c3.87-10.42-10.79-25.88-20.49-15.1s-10.79,51.77,28,58.79C461.34,561.34,447.32,535.09,453.79,517.65Z" transform="translate(-50.76 -38.59)"/>
    <path class="cls-1" d="M420.71,513.16c3.87-10.42-10.78-25.89-20.49-15.1s-10.78,51.77,28,58.78C428.26,556.84,414.24,530.6,420.71,513.16Z" transform="translate(-50.76 -38.59)"/>
    <path class="cls-1" d="M388,506.33c3.87-10.43-10.79-25.89-20.5-15.1S356.72,543,395.55,550C395.55,550,381.53,523.76,388,506.33Z" transform="translate(-50.76 -38.59)"/>
    <path class="cls-1" d="M463.5,319c9.7,10.78,24.36-4.68,20.49-15.1-6.47-17.44,7.55-43.69,7.55-43.69C452.71,267.24,453.79,308.23,463.5,319Z" transform="translate(-50.76 -38.59)"/>
    <path class="cls-1" d="M432.4,320.45c9.71,10.79,24.36-4.67,20.49-15.1-6.47-17.43,7.55-43.68,7.55-43.68C421.61,268.68,422.69,309.67,432.4,320.45Z" transform="translate(-50.76 -38.59)"/>
    <path class="cls-1" d="M399.32,325c9.71,10.78,24.36-4.68,20.5-15.1-6.48-17.44,7.55-43.68,7.55-43.68C388.54,273.18,389.62,314.16,399.32,325Z" transform="translate(-50.76 -38.59)"/>
    <path class="cls-1" d="M366.61,331.78c9.7,10.78,24.36-4.68,20.49-15.1-6.47-17.44,7.55-43.68,7.55-43.68C355.82,280,356.9,321,366.61,331.78Z" transform="translate(-50.76 -38.59)"/>
    <path class="cls-1" d="M333.53,357.66A52.11,52.11,0,0,0,312,333.22c-27.33-13.66-61.84,23-76.94,40.26s-44.58,8.63-44.58,8.63-2.16,11.51,19.41,27.33c24.45,18.69,55.37-18,75.5-36S333.53,357.66,333.53,357.66Z" transform="translate(-50.76 -38.59)"/>
    <path class="cls-1" d="M236.28,353S226,319,201.76,326s-77.11,36.13-105.7,18.33c-1.61,11.87,23.19,43.15,52.31,35.6s44.77-30.74,67.95-31.82A43.85,43.85,0,0,1,236.28,353Z" transform="translate(-50.76 -38.59)"/>
    <path class="cls-1" d="M112.78,333c30.2-6.47,36.67-14,50.7-10.25,0,0-17.26-20-39.37-20s-44.76-1.08-53.39-9.71C64.25,301.76,82.58,339.51,112.78,333Z" transform="translate(-50.76 -38.59)"/>
    <path class="cls-1" d="M124.65,294.21s-9.17-29.12-33.44-37.75S51.3,214.39,51.3,214.39s-7,61.48,29.12,62.56A76.19,76.19,0,0,1,124.65,294.21Z" transform="translate(-50.76 -38.59)"/>
    <path class="cls-1" d="M62.63,205.77c24.27,16.71,25.88,18.33,28.58,34a38.4,38.4,0,0,0-7-43.68c-19.41-21.57-18.88-42.6-14-53.39C59.93,148.6,38.36,189.05,62.63,205.77Z" transform="translate(-50.76 -38.59)"/>
    <path class="cls-1" d="M101.46,175s17.79-14,9.7-41-4.85-43.14-.54-49.61c-15.1,4.85-34,38.83-22.11,55.54S102,168,101.46,175Z" transform="translate(-50.76 -38.59)"/>
    <path class="cls-1" d="M149.45,89.82c0-23.19,20.5-41.53,20.5-41.53s-42.61,7.55-41.53,27,1.08,42.6-2.7,52.85C125.72,128.11,149.45,113,149.45,89.82Z" transform="translate(-50.76 -38.59)"/>
    <path class="cls-1" d="M154.85,119.48s31.81-15.64,41-39.37a332.76,332.76,0,0,1,19.42-41.52s-33.44,9.17-40.45,31.28S163.47,111.39,154.85,119.48Z" transform="translate(-50.76 -38.59)"/>
    <path class="cls-1" d="M240.05,75.8c8.63-21.57,32.36-32.9,32.36-32.9s-35.59-7.55-50.15,21-18.88,38.83-18.88,38.83S231.43,97.37,240.05,75.8Z" transform="translate(-50.76 -38.59)"/>
    <path class="cls-1" d="M281.58,79.57c12.4-17.79,36.13-17.25,36.13-17.25s-5.93-15.1-16.18-14.56C273,46.14,247.6,97.91,247.6,97.91,253.54,100.61,269.17,97.37,281.58,79.57Z" transform="translate(-50.76 -38.59)"/>
    <path class="cls-1" d="M270.25,144.83c16.72,48,87.37,96,176.89,70.64-42.06-8.09-117-13.48-137-52.31S298.3,94.67,326.34,96.29s12.4,39.91-5.39,64.18c0,0,56.62-22.11,48-54.47s-33.43-39.37-50.15-36.13S253.54,96.83,270.25,144.83Z" transform="translate(-50.76 -38.59)"/>
  </g>
</svg>
