<svg id="Layer_1" data-name="Layer 1" xmlns="http://www.w3.org/2000/svg" viewBox="0 0 2970.13 679.21">
  <defs>
    <style>
      .cls-1 {
        fill: #0d4e81;
      }

      .cls-2 {
        fill: #231f20;
      }
    </style>
  </defs>
  <g>
    <path class="cls-1" d="M1579.43,391.9H1548s-22-7.14-22-37.81,10.31-259.65,10.31-259.65l131.33,310.33h12.69L1822.43,84.66V361.41s1,26.44-16.93,26.44h-30v21.86h155.82V390.32h-26.08s-27.86-3.35-27.86-28-9.52-287.68-9.52-287.68,1.59-28.56,25.39-28.56h29.08V27.54h-96.24L1690.75,318.92,1559.6,29.13l-96.77-2.65v20.1h25.38s27,4.23,27,23.8-18.51,287.68-18.51,287.68-9,31.73-28.56,31.73-24.59.09-24.59.09V412h135.91Z" transform="translate(-22.58 0)"/>
    <path class="cls-1" d="M2120.68,389.61h-31s-19.39-2.11-19.39-24v-123h36.31s21.51-2.82,39.13,33.84,69.1,133.62,117.05,135.38l47.95,1.76v-18s-8.46.36-20.8-8.1-119.17-157.24-119.17-157.24a23.21,23.21,0,0,1,12.34-11.64c8.47-2.82,66.28-23.62,66.28-100.12a94.19,94.19,0,0,0-93.77-93.78H1970.32a15,15,0,0,0,.18,2.12v19l29.26,1.93s20.62,6.7,20.62,24.68.18,290,.18,290-2.47,22.57-21.86,24.33a301.42,301.42,0,0,1-32.08,1.41v21.15h154.06ZM2069.92,60.33s5.28-15.87,29.61-15.87,92.37,8.11,92.37,69.46c0,51.82-2.12,88.84-39.13,99.06-36,9.88-82.85,7.41-82.85,7.41Z" transform="translate(-22.58 0)"/>
    <path class="cls-1" d="M2335.39,67.2c10,23.8,133.26,345.86,133.26,345.86h19L2621,75.67S2637.35,45,2674.89,45V28.07H2543.74V45.52h18.51s37-.53,25.91,34.38S2494,332.67,2494,332.67L2389.86,70.38s-3.18-15.34,6.34-20.1,34.37-2.64,34.37-2.64V25.43H2287.26V46.05S2325.34,43.41,2335.39,67.2Z" transform="translate(-22.58 0)"/>
    <path class="cls-1" d="M2908.1,386.88c-43.89,2.11-63.46,0-63.46,0s-36.48,1.59-36.48-40.19V69.85s3.17-21.68,20.09-21.68h34.37s-.13-22.08-.52-22.48H2706.36V46.84h30.14s21.95,2.91,21.95,28.3v289s-4.23,25.38-23.27,25.38H2705v21.16H2970l22.74-95.19-20.1-4.76S2952,384.76,2908.1,386.88Z" transform="translate(-22.58 0)"/>
    <path class="cls-1" d="M1478.31,594.55c-16.27-8.24-25.52-15.07-25.52-29.13,0-11.06,7.24-21.7,21.91-21.7,17.07,0,22.9,14.26,26.52,26.92l6-1.2c-1.61-12.66-2.82-20.7-3.62-27.93a82.43,82.43,0,0,0-25.72-4.83c-26.32,0-42.2,16.68-42.2,36.37,0,22.1,19.29,32.35,33.56,39.79,15.07,8,25.72,15.27,25.72,29.53s-8.84,23.51-23.51,23.51c-20.49,0-29.94-20.69-33.15-33.15l-6.23,1.61c1.2,10.24,3.82,27.32,5.42,31.74A71.58,71.58,0,0,0,1448,670.3a64.49,64.49,0,0,0,19.69,3c27.33,0,45.41-17.08,45.41-38.58C1513.07,612.63,1495,603,1478.31,594.55Z" transform="translate(-22.58 0)"/>
    <path class="cls-1" d="M1629,650c-10.65-12.26-31.55-36.37-46.21-55.26,12.65-13.06,25.92-26.52,34.36-34.16,12.65-11.65,17.88-13.66,32.55-15.07V539.7h-48.83v5.82l4.22.61c9.24,1.2,9.44,3.41,3.62,10.24a395.19,395.19,0,0,1-32.55,35.17c-5.83,5.42-10.05,8.23-14.27,9.44V566c0-17.88,1.81-19.29,17.08-20.5V539.7h-53.25v5.82c15.88,1.41,17.68,2.42,17.68,20.5v78.16c0,17.48-1.8,19.09-16.87,20.3v5.82h53.64v-5.82c-16.47-1.21-18.28-2.82-18.28-20.3V606.41c3.21-.61,6,.2,10.65,5.82,17.28,21.1,33.55,41.6,48,58.07h32.55v-5.82C1643.68,663.27,1639.26,661.06,1629,650Z" transform="translate(-22.58 0)"/>
    <path class="cls-1" d="M1661.76,545.52c16.08,1.41,17.88,2.62,17.88,19.7V645c0,17.07-1.8,18.28-17.88,19.49v5.82h54.45v-5.82c-16.07-1.21-17.88-2.42-17.88-19.49V565.22c0-17.08,1.81-18.29,17.88-19.7V539.7h-54.45Z" transform="translate(-22.58 0)"/>
    <path class="cls-1" d="M1820.69,545.52c14.27.81,18.89,3.62,19.9,12.46a302.11,302.11,0,0,1,1.4,33.36v46.81h-.6l-82.58-98.45h-31.15v5.82c9.45.81,13.67,2.42,17.68,7.44,3.82,4.82,4.22,6.23,4.22,20.49v43.81a327.16,327.16,0,0,1-1.4,34.15c-1,9.65-6,12.26-17.48,13.07v5.82h47.82v-5.82c-13.87-.81-18.29-3.62-19.29-13.47a336.44,336.44,0,0,1-1.21-33.75V567.83h.41l85.19,104.28h6.83V591.34c0-18.49.61-27.53,1.21-33.76,1-8.84,5.62-11.45,16.88-12.06V539.7h-47.83Z" transform="translate(-22.58 0)"/>
    <path class="cls-1" d="M1972.8,594.55c-16.28-8.24-25.52-15.07-25.52-29.13,0-11.06,7.23-21.7,21.9-21.7,17.08,0,22.91,14.26,26.52,26.92l6-1.2c-1.61-12.66-2.81-20.7-3.62-27.93a82.38,82.38,0,0,0-25.72-4.83c-26.32,0-42.19,16.68-42.19,36.37,0,22.1,19.29,32.35,33.55,39.79,15.07,8,25.72,15.27,25.72,29.53s-8.84,23.51-23.51,23.51c-20.49,0-29.93-20.69-33.15-33.15l-6.23,1.61c1.21,10.24,3.82,27.32,5.43,31.74a71.13,71.13,0,0,0,10.45,4.22,64.44,64.44,0,0,0,19.69,3c27.32,0,45.41-17.08,45.41-38.58C2007.56,612.63,1989.47,603,1972.8,594.55Z" transform="translate(-22.58 0)"/>
    <path class="cls-1" d="M2091.55,536.68c-42.8,0-68.12,33.76-68.12,69.53,0,38.57,28.93,67.11,65.91,67.11s67.51-26.53,67.51-69.93C2156.85,563.21,2126.31,536.68,2091.55,536.68Zm2,129.2c-27.92,0-47.62-27.93-47.62-64.9h0c0-37.17,19.7-56.86,41.6-56.86,25.92,0,46.81,22.7,46.81,64.7C2134.34,647.2,2115.26,665.88,2093.55,665.88Z" transform="translate(-22.58 0)"/>
    <path class="cls-1" d="M2253.1,656.84c-4.63,5.22-11.46,6.23-22.11,6.23-8,0-14.67-.2-18.48-2.41-3.82-2-4.83-5.83-4.83-16.48V565c0-17.28,2-18.28,17.69-19.49V539.7h-54v5.82c16.27,1.41,17.68,2.42,17.68,19.49v79.77c0,17.08-1.81,18.49-18.69,19.7v5.82h92.23c1.81-6,6-25.31,7.23-31.95l-6.23-1.4A57.61,57.61,0,0,1,2253.1,656.84Z" transform="translate(-22.58 0)"/>
    <path class="cls-1" d="M2360.59,545.52c14.07,1,18.29,3.82,19.49,11.46a246.53,246.53,0,0,1,1.41,32.15V605.4c0,33.36-9.24,56.46-37.17,56.46-24.32,0-36.77-18.28-36.77-50.43V566.22c0-18.28,1.6-19.49,17.08-20.7V539.7h-53.45v5.82c15.67,1.61,17.48,2.42,17.48,20.7v49.63c0,23.51,5.63,38.58,17.48,47.62,9,7,20.7,9.85,32.75,9.85,13.46,0,26.93-4.42,36.17-14.07,11.45-12,15.07-29.34,15.07-52.44V589.13a292.56,292.56,0,0,1,1.21-31.75c1-8,5.62-10.85,17.48-11.86V539.7h-48.23Z" transform="translate(-22.58 0)"/>
    <path class="cls-1" d="M2526.56,534.67a10.5,10.5,0,0,1-10.25,5h-79.77c-5.63,0-8.24-.41-11.05-5h-4.22c-.4,10.85-1.61,24.32-2.41,36.77h6.23c2.21-9,4.22-14.86,6.63-18.28,2.61-4.42,6.63-6.23,23.31-6.23h11.45v98.26c0,16.07-1.61,18.08-19.69,19.29v5.82h59.07v-5.82c-18.89-1.21-20.49-3.22-20.49-19.29V546.93h13.26c14.67,0,18.08,1.61,21.5,6,2.61,3.41,4.62,8.64,6.83,18.48l6-.6c-1-11.85-2-27.12-2-36.17Z" transform="translate(-22.58 0)"/>
    <path class="cls-1" d="M2545.64,545.52c16.08,1.41,17.89,2.62,17.89,19.7V645c0,17.07-1.81,18.28-17.89,19.49v5.82h54.46v-5.82c-16.08-1.21-17.89-2.42-17.89-19.49V565.22c0-17.08,1.81-18.29,17.89-19.7V539.7h-54.46Z" transform="translate(-22.58 0)"/>
    <path class="cls-1" d="M2682.28,536.68c-42.8,0-68.12,33.76-68.12,69.53,0,38.57,28.93,67.11,65.91,67.11s67.51-26.53,67.51-69.93C2747.58,563.21,2717,536.68,2682.28,536.68Zm2,129.2c-27.93,0-47.63-27.93-47.63-64.9h0c0-37.17,19.7-56.86,41.6-56.86,25.92,0,46.82,22.7,46.82,64.7C2725.08,647.2,2706,665.88,2684.29,665.88Z" transform="translate(-22.58 0)"/>
    <path class="cls-1" d="M2851.06,539.7v5.82c14.27.81,18.89,3.62,19.89,12.46a304.59,304.59,0,0,1,1.41,33.36v46.81h-.6l-82.59-98.45H2758v5.82c9.44.81,13.66,2.42,17.68,7.44,3.82,4.82,4.22,6.23,4.22,20.49v43.81a329.93,329.93,0,0,1-1.41,34.15c-1,9.65-6,12.26-17.48,13.07v5.82h47.82v-5.82c-13.86-.81-18.28-3.62-19.29-13.47a336.43,336.43,0,0,1-1.2-33.75V567.83h.4L2874,672.11h6.83V591.34c0-18.49.6-27.53,1.2-33.76,1-8.84,5.63-11.45,16.88-12.06V539.7Z" transform="translate(-22.58 0)"/>
    <path class="cls-1" d="M2958,594.55c-16.27-8.24-25.51-15.07-25.51-29.13,0-11.06,7.23-21.7,21.9-21.7,17.08,0,22.9,14.26,26.52,26.92l6-1.2c-1.61-12.66-2.81-20.7-3.62-27.93a82.38,82.38,0,0,0-25.72-4.83c-26.32,0-42.19,16.68-42.19,36.37,0,22.1,19.29,32.35,33.55,39.79,15.07,8,25.72,15.27,25.72,29.53s-8.84,23.51-23.51,23.51c-20.49,0-29.94-20.69-33.15-33.15l-6.23,1.61c1.21,10.24,3.82,27.32,5.42,31.74a71.58,71.58,0,0,0,10.45,4.22,64.49,64.49,0,0,0,19.69,3c27.33,0,45.42-17.08,45.42-38.58C2992.72,612.63,2974.63,603,2958,594.55Z" transform="translate(-22.58 0)"/>
    <path class="cls-1" d="M952.14,320.32c-55,1.08-70.83,30.56-70.83,30.56,78-1.26,124.22,14.74,130.69,53.57-39.37,33.43-81.43,38.29-128.89,46.38,121.34,45.84,218.95-12.95,251.85-64.18C1087,336,1007.15,319.24,952.14,320.32Z" transform="translate(-22.58 0)"/>
    <path class="cls-1" d="M868,339.73c-58.78-2.69-76,37.75-76,37.75,58.78-4.85,62,7,60.4,23.73-1,10.2-18.33,21-59.32,16.72,25.89,42.06,58.78,38.29,76.58,36.13C867.47,440,853.45,432,853.45,432L936,396.36l-83.05-32.9A38.68,38.68,0,0,0,868,339.73Z" transform="translate(-22.58 0)"/>
    <path class="cls-1" d="M840.51,159.61c28,14,34.51,49.62-28,72.27,36.68,17.79,55.55-17.8,55.55-17.8s11.33,30.74-32.36,41c-24.26,7-10.24,55.54-11.86,60.94s-3.78,11.86-1.08,15.63c0,0,23.73,7,21-9.16S833,271.78,854,272.86s66.87-12.94,68.49-55-12.94-89.53-75.5-94.92-84.13,73.88-84.13,73.88S812.46,145.59,840.51,159.61Z" transform="translate(-22.58 0)"/>
    <path class="cls-1" d="M848.06,529c-21,1.08-12.95-33.43-10.25-49.61s-21-9.17-21-9.17c-2.7,3.78-.54,10.25,1.08,15.64s-12.41,53.93,11.86,60.94c43.68,10.25,32.36,41,32.36,41s-18.88-35.6-55.55-17.8c62.56,22.65,56.09,58.24,28,72.26s-77.65-37.21-77.65-37.21,21.57,79.28,84.13,73.88,77.11-52.84,75.5-94.91S869.09,527.94,848.06,529Z" transform="translate(-22.58 0)"/>
    <path class="cls-1" d="M955.37,486.42c-9.7-10.79-24.36,4.68-20.49,15.1,6.47,17.44-7.55,43.68-7.55,43.68C966.16,538.19,965.08,497.21,955.37,486.42Z" transform="translate(-22.58 0)"/>
    <path class="cls-1" d="M986.47,485c-9.7-10.78-24.36,4.68-20.49,15.1,6.47,17.44-7.55,43.68-7.55,43.68C997.26,536.75,996.18,495.77,986.47,485Z" transform="translate(-22.58 0)"/>
    <path class="cls-1" d="M1019.55,480.49c-9.71-10.79-24.36,4.67-20.49,15.1,6.47,17.43-7.55,43.68-7.55,43.68C1030.34,532.26,1029.26,491.27,1019.55,480.49Z" transform="translate(-22.58 0)"/>
    <path class="cls-1" d="M1031.77,488.76c6.47,17.43-7.55,43.68-7.55,43.68,38.83-7,37.75-48,28-58.78S1027.91,478.33,1031.77,488.76Z" transform="translate(-22.58 0)"/>
    <path class="cls-1" d="M935.78,286.34c-3.87,10.43,10.79,25.89,20.49,15.1s10.79-51.77-28-58.78C928.23,242.66,942.25,268.91,935.78,286.34Z" transform="translate(-22.58 0)"/>
    <path class="cls-1" d="M966.88,287.78c-3.87,10.43,10.79,25.89,20.49,15.1s10.79-51.77-28-58.78C959.33,244.1,973.35,270.35,966.88,287.78Z" transform="translate(-22.58 0)"/>
    <path class="cls-1" d="M1020.45,307.38c9.71-10.79,10.78-51.77-28-58.79,0,0,14,26.25,7.55,43.69C996.09,302.7,1010.74,318.16,1020.45,307.38Z" transform="translate(-22.58 0)"/>
    <path class="cls-1" d="M1053.17,314.21c9.7-10.79,10.78-51.77-28.05-58.78,0,0,14,26.24,7.55,43.68C1028.8,309.53,1043.46,325,1053.17,314.21Z" transform="translate(-22.58 0)"/>
    <path class="cls-1" d="M1184.75,355.91c-15.1-17.25-49.61-53.93-76.94-40.26a52.11,52.11,0,0,0-21.57,24.44s28-2.15,48.18,15.82,51,54.65,75.5,35.95c21.57-15.81,19.41-27.32,19.41-27.32S1199.85,373.17,1184.75,355.91Z" transform="translate(-22.58 0)"/>
    <path class="cls-1" d="M1218,308.46c-24.27-7-34.52,27-34.52,27a43.85,43.85,0,0,1,20-4.85c23.19,1.07,38.82,24.26,68,31.81s53.93-23.72,52.31-35.59C1295.12,344.59,1242.27,315.47,1218,308.46Z" transform="translate(-22.58 0)"/>
    <path class="cls-1" d="M1295.66,285.27c-22.11,0-39.36,20-39.36,20,14-3.78,20.49,3.77,50.69,10.25s48.53-31.28,42.06-39.91C1340.42,284.19,1317.77,285.27,1295.66,285.27Z" transform="translate(-22.58 0)"/>
    <path class="cls-1" d="M1328.56,238.89c-24.27,8.63-33.44,37.75-33.44,37.75a76.19,76.19,0,0,1,44.23-17.26c36.13-1.08,29.12-62.56,29.12-62.56S1352.83,230.26,1328.56,238.89Z" transform="translate(-22.58 0)"/>
    <path class="cls-1" d="M1328.56,222.17c2.7-15.64,4.31-17.26,28.58-34s2.7-57.16-7.55-63.09c4.86,10.78,5.4,31.82-14,53.39A38.4,38.4,0,0,0,1328.56,222.17Z" transform="translate(-22.58 0)"/>
    <path class="cls-1" d="M1318.31,157.46c-.53-7,1.08-18.34,13-35.06s-7-50.69-22.11-55.54c4.31,6.47,7.55,22.65-.54,49.61S1318.31,157.46,1318.31,157.46Z" transform="translate(-22.58 0)"/>
    <path class="cls-1" d="M1270.32,72.25c0,23.19,23.73,38.29,23.73,38.29-3.78-10.25-3.78-33.44-2.7-52.85s-41.53-27-41.53-27S1270.32,49.06,1270.32,72.25Z" transform="translate(-22.58 0)"/>
    <path class="cls-1" d="M1264.92,101.91c-8.62-8.09-12.94-27.5-20-49.62S1204.52,21,1204.52,21a332.76,332.76,0,0,1,19.42,41.52C1233.11,86.27,1264.92,101.91,1264.92,101.91Z" transform="translate(-22.58 0)"/>
    <path class="cls-1" d="M1179.72,58.23c8.63,21.57,36.67,27,36.67,27s-4.31-10.25-18.88-38.83-50.15-21-50.15-21S1171.09,36.66,1179.72,58.23Z" transform="translate(-22.58 0)"/>
    <path class="cls-1" d="M1138.19,62c12.41,17.8,28,21,34,18.34,0,0-25.35-51.77-53.93-50.16-10.25-.54-16.18,14.56-16.18,14.56S1125.79,44.21,1138.19,62Z" transform="translate(-22.58 0)"/>
    <path class="cls-1" d="M972.63,197.9c89.52,25.35,160.17-22.65,176.89-70.64s-31.82-71.73-48.54-75-41.52,3.78-50.15,36.14,48,54.46,48,54.46c-17.79-24.26-33.43-62.55-5.39-64.17s36.13,28,16.18,66.87S1014.7,189.81,972.63,197.9Z" transform="translate(-22.58 0)"/>
    <path class="cls-1" d="M508.49,450.83C461,442.74,419,437.88,379.6,404.45c6.47-38.83,52.67-54.83,130.68-53.57,0,0-15.81-29.48-70.82-30.56S304.64,336,256.64,386.65C289.54,437.88,387.15,496.67,508.49,450.83Z" transform="translate(-22.58 0)"/>
    <path class="cls-1" d="M599.63,377.48s-17.26-40.44-76-37.75a38.59,38.59,0,0,0,15.1,23.73l-83.05,32.9L538.15,432s-14,8.09-16.18,22.11c17.8,2.16,50.69,5.93,76.58-36.13-41,4.31-58.34-6.52-59.32-16.72C537.61,384.49,540.84,372.63,599.63,377.48Z" transform="translate(-22.58 0)"/>
    <path class="cls-1" d="M537.61,272.86c21-1.08,12.94,33.44,10.24,49.62s21,9.16,21,9.16c2.69-3.77.54-10.24-1.08-15.63s12.4-53.93-11.87-60.94c-43.68-10.25-32.35-41-32.35-41s18.87,35.59,55.54,17.8c-62.55-22.65-56.08-58.25-28-72.27s77.66,37.21,77.66,37.21-21.57-79.27-84.13-73.88-77.12,52.85-75.5,94.92S516.58,273.94,537.61,272.86Z" transform="translate(-22.58 0)"/>
    <path class="cls-1" d="M557,642.27c-28-14-34.51-49.61,28.05-72.26-36.68-17.8-55.55,17.8-55.55,17.8s-11.33-30.74,32.36-41c24.26-7,10.24-55.55,11.86-60.94s3.78-11.86,1.08-15.64c0,0-23.73-7-21,9.17S564.57,530.1,543.54,529s-66.87,13-68.49,55,12.94,89.52,75.5,94.91,84.13-73.88,84.13-73.88S585.07,656.29,557,642.27Z" transform="translate(-22.58 0)"/>
    <path class="cls-1" d="M456.72,501.52c3.86-10.42-10.79-25.89-20.5-15.1s-10.78,51.77,28,58.78C464.27,545.2,450.24,519,456.72,501.52Z" transform="translate(-22.58 0)"/>
    <path class="cls-1" d="M425.62,500.08c3.86-10.42-10.79-25.88-20.5-15.1s-10.78,51.77,28.05,58.78C433.17,543.76,419.15,517.52,425.62,500.08Z" transform="translate(-22.58 0)"/>
    <path class="cls-1" d="M392.54,495.59c3.87-10.43-10.79-25.89-20.49-15.1s-10.79,51.77,28,58.78C400.09,539.27,386.07,513,392.54,495.59Z" transform="translate(-22.58 0)"/>
    <path class="cls-1" d="M359.82,488.76c3.87-10.43-10.78-25.89-20.49-15.1s-10.78,51.77,28,58.78C367.37,532.44,353.35,506.19,359.82,488.76Z" transform="translate(-22.58 0)"/>
    <path class="cls-1" d="M435.32,301.44c9.71,10.79,24.36-4.67,20.5-15.1-6.48-17.43,7.55-43.68,7.55-43.68C424.54,249.67,425.62,290.66,435.32,301.44Z" transform="translate(-22.58 0)"/>
    <path class="cls-1" d="M404.22,302.88c9.71,10.79,24.37-4.67,20.5-15.1-6.47-17.43,7.55-43.68,7.55-43.68C393.44,251.11,394.52,292.1,404.22,302.88Z" transform="translate(-22.58 0)"/>
    <path class="cls-1" d="M371.15,307.38c9.71,10.78,24.36-4.68,20.49-15.1-6.47-17.44,7.55-43.69,7.55-43.69C360.36,255.61,361.44,296.59,371.15,307.38Z" transform="translate(-22.58 0)"/>
    <path class="cls-1" d="M338.43,314.21c9.71,10.78,24.36-4.68,20.49-15.1-6.47-17.44,7.55-43.68,7.55-43.68C327.65,262.44,328.72,303.42,338.43,314.21Z" transform="translate(-22.58 0)"/>
    <path class="cls-1" d="M305.36,340.09a52.08,52.08,0,0,0-21.58-24.44c-27.32-13.67-61.83,23-76.93,40.26s-44.58,8.63-44.58,8.63-2.16,11.51,19.41,27.32c24.45,18.7,55.37-18,75.5-35.95S305.36,340.09,305.36,340.09Z" transform="translate(-22.58 0)"/>
    <path class="cls-1" d="M208.1,335.42s-10.24-34-34.51-27-77.12,36.13-105.7,18.33c-1.62,11.87,23.19,43.14,52.31,35.59s44.76-30.74,68-31.81A43.81,43.81,0,0,1,208.1,335.42Z" transform="translate(-22.58 0)"/>
    <path class="cls-1" d="M84.61,315.47c30.2-6.48,36.67-14,50.69-10.25,0,0-17.26-20-39.37-20s-44.76-1.08-53.39-9.71C36.07,284.19,54.41,321.94,84.61,315.47Z" transform="translate(-22.58 0)"/>
    <path class="cls-1" d="M96.47,276.64S87.3,247.52,63,238.89s-39.91-42.07-39.91-42.07-7,61.48,29.12,62.56A76.17,76.17,0,0,1,96.47,276.64Z" transform="translate(-22.58 0)"/>
    <path class="cls-1" d="M34.45,188.19c24.27,16.72,25.89,18.34,28.59,34a38.41,38.41,0,0,0-7-43.68c-19.42-21.57-18.88-42.61-14-53.39C31.76,131,10.19,171.48,34.45,188.19Z" transform="translate(-22.58 0)"/>
    <path class="cls-1" d="M73.28,157.46s17.8-14,9.71-41-4.85-43.14-.54-49.61c-15.1,4.85-34,38.82-22.11,55.54S73.82,150.44,73.28,157.46Z" transform="translate(-22.58 0)"/>
    <path class="cls-1" d="M121.28,72.25c0-23.19,20.49-41.53,20.49-41.53s-42.6,7.55-41.52,27,1.08,42.6-2.7,52.85C97.55,110.54,121.28,95.44,121.28,72.25Z" transform="translate(-22.58 0)"/>
    <path class="cls-1" d="M126.67,101.91s31.82-15.64,41-39.37A332.7,332.7,0,0,1,187.07,21s-33.43,9.16-40.44,31.27S135.3,93.82,126.67,101.91Z" transform="translate(-22.58 0)"/>
    <path class="cls-1" d="M211.88,58.23c8.63-21.57,32.36-32.9,32.36-32.9s-35.6-7.55-50.16,21-18.87,38.83-18.87,38.83S203.25,79.8,211.88,58.23Z" transform="translate(-22.58 0)"/>
    <path class="cls-1" d="M253.4,62c12.41-17.79,36.14-17.26,36.14-17.26s-5.94-15.1-16.18-14.56c-28.58-1.61-53.93,50.16-53.93,50.16C225.36,83,241,79.8,253.4,62Z" transform="translate(-22.58 0)"/>
    <path class="cls-1" d="M242.08,127.26c16.72,48,87.36,96,176.89,70.64-42.07-8.09-117-13.48-137-52.31S270.12,77.1,298.17,78.72s12.4,39.91-5.4,64.18c0,0,56.63-22.12,48-54.47S307.33,49.06,290.62,52.3,225.36,79.26,242.08,127.26Z" transform="translate(-22.58 0)"/>
    <path class="cls-2" d="M2941.18,27.12c0,15.39-12.07,27.46-27.78,27.46-15.55,0-28-12.07-28-27.46,0-15,12.41-27.12,28-27.12C2929.11,0,2941.18,12.07,2941.18,27.12Zm-48.79,0c0,12.08,8.93,21.67,21.17,21.67,11.91,0,20.67-9.59,20.67-21.5,0-12.07-8.76-21.83-20.83-21.83S2892.39,15.22,2892.39,27.12Zm16.71,14.23h-6.29V14.22a55.52,55.52,0,0,1,10.42-.82c5.13,0,7.44.82,9.43,2a7.52,7.52,0,0,1,2.64,6c0,3-2.31,5.29-5.62,6.28V28c2.65,1,4.14,3,5,6.62.83,4.13,1.33,5.79,2,6.78h-6.78c-.83-1-1.33-3.47-2.15-6.62-.5-3-2.15-4.3-5.63-4.3h-3Zm.16-15.38h3c3.47,0,6.28-1.16,6.28-4,0-2.48-1.82-4.14-5.79-4.14a15.36,15.36,0,0,0-3.47.33Z" transform="translate(-22.58 0)"/>
  </g>
</svg>
