<?xml version="1.0" encoding="utf-8"?>
<!-- Generator: Adobe Illustrator 26.0.1, SVG Export Plug-In . SVG Version: 6.00 Build 0)  -->
<svg version="1.1" id="Layer_1" xmlns="http://www.w3.org/2000/svg" xmlns:xlink="http://www.w3.org/1999/xlink" x="0px" y="0px"
	 viewBox="0 0 482.8 771.6" style="enable-background:new 0 0 482.8 771.6;" xml:space="preserve">
<style type="text/css">
	.st0{fill:#0D4E81;}
</style>
<path class="st0" d="M305.7,198c20.1,43.7,39.9,81.2,34.6,132.5c-35.7,16.6-75-12.5-118.1-77.5c0,0-15.4,29.7,14.8,75.7
	S326.1,431,395.1,442C418.8,385.9,412.1,272.1,305.7,198z"/>
<path class="st0" d="M193.7,164.2c0,0-23.6,37.1,11.8,84.1c6.8-6.9,10.7-16.2,11-25.9l74.1,49.9l-17.3-88.2c0,0,14.6,7,27.4,0.8
	c-8.3-15.9-23.8-45.2-73.1-42.8c26.7,31.4,27.6,51.8,19.7,58.4C234.5,211.4,222.9,215.5,193.7,164.2z"/>
<path class="st0" d="M142.4,274.5c-12.8-16.7,20.3-29.6,35.1-36.5c14.9-6.9-4.3-22.5-4.3-22.5c-4.6-0.1-8.8,5.3-12.3,9.7
	c-3.5,4.4-51.5,20.2-43.6,44.2c16.2,41.8-15.5,49.9-15.5,49.9s18.7-35.7-16.7-55.9c16.7,64.4-16.3,79.2-43.8,64
	c-27.4-15.2-13.2-85.1-13.2-85.1S-25,304.9,14.8,353.5s87.2,33.7,121,8.6C169.5,337,155.2,291.3,142.4,274.5z"/>
<path class="st0" d="M436.2,49.7c4.3,31.1-21.4,56.5-75.5,17.7c6,40.3,46.1,35.8,46.1,35.8s-19,26.7-52.1-3.5
	c-19.5-16.1-51.6,22.9-57,24.7s-11.9,3.6-13.5,7.9c0,0,7.6,23.5,19.5,12.2c11.8-11.4,35.7-37.5,46.7-19.6c11,18,48.5,47.9,84.1,25.4
	C470.1,127.8,501,89,470.1,34.3S361.6,6.7,361.6,6.7S431.9,18.6,436.2,49.7z"/>
<path class="st0" d="M376.8,212c-10.8,2.7-15.3,23.5-0.9,25.4c14.4,1.9,48.8-20.4,32.6-56.4C408.5,181.1,394.8,207.5,376.8,212z"/>
<path class="st0" d="M393.2,238.5c-10.8,2.7-15.3,23.5-0.9,25.4s48.8-20.4,32.6-56.4C424.9,207.6,411.2,234,393.2,238.5z"/>
<path class="st0" d="M408.2,268.3c-10.8,2.7-15.3,23.5-0.9,25.4s48.8-20.4,32.6-56.4C439.9,237.4,426.2,263.8,408.2,268.3z"/>
<path class="st0" d="M421,299.2c-10.8,2.7-15.3,23.5-0.9,25.4c14.4,1.9,48.8-20.4,32.6-56.4C452.8,268.2,439,294.6,421,299.2z"/>
<path class="st0" d="M223.8,342.7c3.4-14.1-17.6-17.5-24-8.4c-10.7,15.2-40.3,18.5-40.3,18.5C187.2,380.9,220.4,356.8,223.8,342.7z"
	/>
<path class="st0" d="M242.6,367.6c3.4-14.1-17.6-17.5-24-8.4c-10.7,15.2-40.3,18.5-40.3,18.5C206,405.7,239.2,381.7,242.6,367.6z"/>
<path class="st0" d="M265,392.3c3.4-14.1-17.6-17.5-24-8.4c-10.7,15.2-40.3,18.5-40.3,18.5C228.4,430.5,261.6,406.4,265,392.3z"/>
<path class="st0" d="M289.1,415.5c3.4-14.1-17.6-17.5-24-8.4c-10.7,15.2-40.3,18.5-40.3,18.5C252.5,453.6,285.7,429.6,289.1,415.5z"
	/>
<path class="st0" d="M329.2,428.1c-6,9.4-8.8,20.5-8,31.6c4.2,30.3,53.9,38,76.7,40.7c22.8,2.7,32.3,31.9,32.3,31.9
	s10.7-4.7,11.6-31.5c1.6-30.7-46.1-35.5-72.3-42C343.2,452.5,329.2,428.1,329.2,428.1z"/>
<path class="st0" d="M380.3,511c0,0-22.2,27.7-2.7,43.7c19.5,16.1,73.4,43.2,74.9,76.8c10.7-5.4,22.5-43.5-0.2-63.3
	c-22.7-19.8-50.7-19.6-64.7-38.1C383.6,524.4,381.1,517.9,380.3,511z"/>
<path class="st0" d="M433.6,624.1c-22.4-21.3-32.3-22.3-37.1-36c0,0-6.7,25.5,5.8,43.8c12.5,18.2,24.4,37.5,22.2,49.5
	C435.2,681.9,456,645.4,433.6,624.1z"/>
<path class="st0" d="M394.9,636.3c0,0-18.8,24-12.2,48.9c6.6,24.9-12.1,56.7-12.1,56.7s54.7-29,35.1-59.4
	C397.2,668.7,393.4,652.5,394.9,636.3z"/>
<path class="st0" d="M357,737.4c0.1-29.5,0.5-31.7,11.9-42.8c-16.1,2.4-28.9,14.6-32.1,30.5c-6.8,28.2-24.5,39.7-36.1,41.7
	C311.3,772,356.9,766.9,357,737.4z"/>
<path class="st0" d="M309.7,722.8c0,0-21.6-6.8-39.3,15.2c-17.7,21.9-32.8,28.4-40.6,28.5c12.5,9.7,51.2,6.1,58.3-13.2
	C295.1,734,303.6,726.3,309.7,722.8z"/>
<path class="st0" d="M212.2,731.4c-19.1,13.1-45.8,6.6-45.8,6.6s30.3,30.9,45.7,19c15.4-11.9,34.5-25,45.1-27.6
	C257.2,729.3,231.4,718.2,212.2,731.4z"/>
<path class="st0" d="M233.7,710.1c0,0-30.9-17.4-55.6-11.6c-14.9,3.5-30,6-45.2,7.5c0,0,26.5,22.4,48.7,15.7
	C203.6,715,222.1,707.6,233.7,710.1z"/>
<path class="st0" d="M149.5,664.5c-22.7,5.1-45.4-8.1-45.4-8.1s13.9,33.6,45.7,29.5c31.8-4.1,42.7-6.4,42.7-6.4
	S172.1,659.5,149.5,664.5z"/>
<path class="st0" d="M129.1,628.1c-21.7-0.2-34.7-20.1-34.7-20.1s-9.1,13.4-2.9,21.6c14.8,24.5,71.9,16.1,71.9,16.1
	C162.3,639.4,150.8,628.3,129.1,628.1z"/>
<path class="st0" d="M189.3,600.6c30.1-40.9,29.8-126.3-41.7-185.9c17.1,39.3,55,104.2,34.3,142.6c-20.8,38.4-49.8,48.5-64.3,24.4
	c-14.5-24,25.9-32.8,56-31.8c0,0-50.2-34.2-72.1-8.8c-21.8,25.4-13.6,49.8-1.5,61.8C112.2,614.9,159.2,641.5,189.3,600.6z"/>
</svg>
